<svg width="25" height="24" viewBox="0 0 25 24" fill="none" xmlns="http://www.w3.org/2000/svg">
<path d="M9.5941 21.006C8.96533 20.9719 8.37364 20.6977 7.9411 20.24C7.4237 19.7422 6.96199 19.1897 6.5641 18.592C5.94259 17.702 5.45131 16.7279 5.1051 15.699C4.71297 14.5922 4.50652 13.4282 4.4941 12.254C4.46397 11.1019 4.74961 9.96346 5.3201 8.96202C5.73768 8.24012 6.33329 7.63728 7.0501 7.21102C7.75899 6.78659 8.56792 6.55813 9.3941 6.54902C10.0169 6.58587 10.629 6.72823 11.2041 6.97002C11.6627 7.17178 12.1453 7.31362 12.6401 7.39202C13.1861 7.27763 13.7197 7.11017 14.2331 6.89202C14.8408 6.65474 15.4842 6.52187 16.1361 6.49902C16.2231 6.49902 16.3091 6.49902 16.3921 6.50902C17.8216 6.55048 19.1512 7.25221 19.9921 8.40902C18.6551 9.12387 17.8341 10.5303 17.8691 12.046C17.8559 13.1956 18.3352 14.2959 19.1861 15.069C19.569 15.4339 20.0149 15.7262 20.5021 15.932C20.4021 16.232 20.2871 16.522 20.1651 16.814C19.8878 17.4593 19.5457 18.0748 19.1441 18.651C18.765 19.2282 18.3237 19.7621 17.8281 20.243C17.3757 20.6919 16.7727 20.9567 16.1361 20.986C15.5965 20.9621 15.0663 20.8355 14.5741 20.613C14.0433 20.3818 13.4729 20.2551 12.8941 20.24C12.299 20.2517 11.7117 20.3777 11.1641 20.611C10.6911 20.8244 10.1859 20.9572 9.6691 21.004L9.5941 21.006ZM12.7441 6.49902C12.6691 6.49902 12.5941 6.49902 12.5191 6.49002C12.5033 6.37099 12.495 6.25109 12.4941 6.13102C12.5268 5.13216 12.9172 4.17826 13.5941 3.44302C13.9724 3.0206 14.431 2.67762 14.9431 2.43402C15.421 2.18802 15.9432 2.04012 16.4791 1.99902C16.4941 2.13002 16.4941 2.25802 16.4941 2.38002C16.48 3.36317 16.1106 4.308 15.4541 5.04002C14.8106 5.9028 13.8186 6.43689 12.7441 6.49902Z" fill="white"/>
</svg>
