<svg width="20" height="20" viewBox="0 0 20 20" fill="none" xmlns="http://www.w3.org/2000/svg">
<rect width="20" height="20" rx="10" fill="black" fill-opacity="0.5"/>
<path d="M7.59995 7.06012V7.54012C7.77067 7.54012 7.92854 7.44944 8.01456 7.30198L7.59995 7.06012ZM8.43995 5.62012V5.14012C8.26923 5.14012 8.11136 5.23079 8.02534 5.37826L8.43995 5.62012ZM11.5599 5.62012L11.9746 5.37826C11.8885 5.23079 11.7307 5.14012 11.5599 5.14012V5.62012ZM12.3999 7.06012L11.9853 7.30198C12.0714 7.44944 12.2292 7.54012 12.3999 7.54012V7.06012ZM5.67995 13.1801V8.26012H4.71995V13.1801H5.67995ZM6.39995 7.54012H7.59995V6.58012H6.39995V7.54012ZM8.01456 7.30198L8.85456 5.86198L8.02534 5.37826L7.18534 6.81826L8.01456 7.30198ZM8.43995 6.10012H11.5599V5.14012H8.43995V6.10012ZM11.1453 5.86198L11.9853 7.30198L12.8146 6.81826L11.9746 5.37826L11.1453 5.86198ZM12.3999 7.54012H13.5999V6.58012H12.3999V7.54012ZM14.3199 8.26012V13.1801H15.2799V8.26012H14.3199ZM14.3199 13.1801C14.3199 13.5778 13.9976 13.9001 13.5999 13.9001V14.8601C14.5278 14.8601 15.2799 14.108 15.2799 13.1801H14.3199ZM13.5999 7.54012C13.9976 7.54012 14.3199 7.86247 14.3199 8.26012H15.2799C15.2799 7.33228 14.5278 6.58012 13.5999 6.58012V7.54012ZM5.67995 8.26012C5.67995 7.86247 6.00231 7.54012 6.39995 7.54012V6.58012C5.47211 6.58012 4.71995 7.33228 4.71995 8.26012H5.67995ZM6.39995 13.9001C6.00231 13.9001 5.67995 13.5778 5.67995 13.1801H4.71995C4.71995 14.108 5.47211 14.8601 6.39995 14.8601V13.9001ZM11.3199 10.4201C11.3199 11.1491 10.729 11.7401 9.99995 11.7401V12.7001C11.2592 12.7001 12.2799 11.6793 12.2799 10.4201H11.3199ZM9.99995 11.7401C9.27093 11.7401 8.67995 11.1491 8.67995 10.4201H7.71995C7.71995 11.6793 8.74074 12.7001 9.99995 12.7001V11.7401ZM8.67995 10.4201C8.67995 9.6911 9.27093 9.10012 9.99995 9.10012V8.14012C8.74074 8.14012 7.71995 9.16091 7.71995 10.4201H8.67995ZM9.99995 9.10012C10.729 9.10012 11.3199 9.6911 11.3199 10.4201H12.2799C12.2799 9.16091 11.2592 8.14012 9.99995 8.14012V9.10012ZM13.5999 13.9001H6.39995V14.8601H13.5999V13.9001Z" fill="white"/>
</svg>
