<svg width="25" height="24" viewBox="0 0 25 24" fill="none" xmlns="http://www.w3.org/2000/svg">
<g clip-path="url(#clip0_274_1404)">
<path d="M12.4998 10.1818V14.0545H17.8816C17.6452 15.2999 16.9361 16.3545 15.8724 17.0636L19.1179 19.5818C21.0088 17.8364 22.0997 15.2728 22.0997 12.2273C22.0997 11.5182 22.0361 10.8364 21.9179 10.1819L12.4998 10.1818Z" fill="#4285F4"/>
<path d="M6.89568 13.9033L6.16371 14.4636L3.57275 16.4818C5.2182 19.7454 8.59068 22 12.4997 22C15.1997 22 17.4633 21.1091 19.1179 19.5818L15.8724 17.0636C14.9815 17.6636 13.8451 18.0273 12.4997 18.0273C9.89976 18.0273 7.69073 16.2728 6.89976 13.9091L6.89568 13.9033Z" fill="#34A853"/>
<path d="M3.57265 7.51819C2.89087 8.86359 2.5 10.3818 2.5 11.9999C2.5 13.6181 2.89087 15.1363 3.57265 16.4817C3.57265 16.4907 6.89998 13.8999 6.89998 13.8999C6.69998 13.2999 6.58177 12.6636 6.58177 11.9998C6.58177 11.3361 6.69998 10.6998 6.89998 10.0998L3.57265 7.51819Z" fill="#FBBC05"/>
<path d="M12.4999 5.98182C13.9727 5.98182 15.2818 6.49089 16.3272 7.47272L19.1908 4.60912C17.4545 2.99097 15.2 2 12.4999 2C8.59089 2 5.2182 4.24545 3.57275 7.51819L6.89998 10.1C7.69084 7.73635 9.89996 5.98182 12.4999 5.98182Z" fill="#EA4335"/>
</g>
<defs>
<clipPath id="clip0_274_1404">
<rect width="20" height="20" fill="white" transform="translate(2.5 2)"/>
</clipPath>
</defs>
</svg>
