<svg width="21" height="20" viewBox="0 0 21 20" fill="none" xmlns="http://www.w3.org/2000/svg">
  <path
    d="M2.5 17.0937C2.5 13.9474 5.12857 11.3968 10.5 11.3968C15.8714 11.3968 18.5 13.9474 18.5 17.0937C18.5 17.5942 18.1348 18 17.6843 18H3.31569C2.8652 18 2.5 17.5942 2.5 17.0937Z"
    fill="#FBE3A2"
  />
  <path d="M13.5 5C13.5 6.65685 12.1569 8 10.5 8C8.84314 8 7.5 6.65685 7.5 5C7.5 3.34315 8.84314 2 10.5 2C12.1569 2 13.5 3.34315 13.5 5Z" fill="#FBE3A2" />
  <path
    d="M2.5 17.0937C2.5 13.9474 5.12857 11.3968 10.5 11.3968C15.8714 11.3968 18.5 13.9474 18.5 17.0937C18.5 17.5942 18.1348 18 17.6843 18H3.31569C2.8652 18 2.5 17.5942 2.5 17.0937Z"
    stroke="black"
    stroke-width="1.5"
  />
  <path
    d="M13.5 5C13.5 6.65685 12.1569 8 10.5 8C8.84314 8 7.5 6.65685 7.5 5C7.5 3.34315 8.84314 2 10.5 2C12.1569 2 13.5 3.34315 13.5 5Z"
    stroke="black"
    stroke-width="1.5"
  />
</svg>