<svg width="103" height="41" viewBox="0 0 103 41" fill="none" xmlns="http://www.w3.org/2000/svg">
<mask id="path-1-inside-1_274_1575" fill="white">
<path fill-rule="evenodd" clip-rule="evenodd" d="M8 0C3.58172 0 0 3.58172 0 8V22C0 26.4183 3.58172 30 8 30H41.762L51.5 41L61.238 30H95C99.4183 30 103 26.4183 103 22V8C103 3.58172 99.4183 0 95 0H8Z"/>
</mask>
<path fill-rule="evenodd" clip-rule="evenodd" d="M8 0C3.58172 0 0 3.58172 0 8V22C0 26.4183 3.58172 30 8 30H41.762L51.5 41L61.238 30H95C99.4183 30 103 26.4183 103 22V8C103 3.58172 99.4183 0 95 0H8Z" fill="#FBE3A2"/>
<path d="M41.762 30L42.5108 29.3372L42.2123 29H41.762V30ZM51.5 41L50.7512 41.6628L51.5 42.5086L52.2488 41.6628L51.5 41ZM61.238 30V29H60.7877L60.4892 29.3372L61.238 30ZM1 8C1 4.13401 4.13401 1 8 1V-1C3.02944 -1 -1 3.02944 -1 8H1ZM1 22V8H-1V22H1ZM8 29C4.13401 29 1 25.866 1 22H-1C-1 26.9706 3.02944 31 8 31V29ZM41.762 29H8V31H41.762V29ZM52.2488 40.3372L42.5108 29.3372L41.0133 30.6628L50.7512 41.6628L52.2488 40.3372ZM60.4892 29.3372L50.7512 40.3372L52.2488 41.6628L61.9867 30.6628L60.4892 29.3372ZM95 29H61.238V31H95V29ZM102 22C102 25.866 98.866 29 95 29V31C99.9706 31 104 26.9706 104 22H102ZM102 8V22H104V8H102ZM95 1C98.866 1 102 4.13401 102 8H104C104 3.02944 99.9706 -1 95 -1V1ZM8 1H95V-1H8V1Z" fill="#855348" mask="url(#path-1-inside-1_274_1575)"/>
<path d="M28.5234 15.1211V16.832C29.4434 16.7852 30.3691 16.7031 31.2422 16.5742L31.3477 17.5352C28.9688 17.9688 26.4258 17.9922 24.5625 17.9922L24.3984 16.9375C25.2246 16.9316 26.1973 16.9258 27.2227 16.8906V15.1211H28.5234ZM30.8086 10.75V11.8047H28.5469C28.6055 12.9355 29.502 13.9551 31.1016 14.3594L30.5039 15.3789C29.25 15.0391 28.3535 14.3066 27.8789 13.3633C27.4102 14.3594 26.5254 15.1211 25.2656 15.4609L24.6445 14.4766C26.2441 14.0371 27.123 12.9941 27.1992 11.8047H24.9609V10.75H27.2227V9.54297H28.5234V10.75H30.8086ZM33.1758 9.44922V20.0547H31.875V9.44922H33.1758ZM43.2188 10.0586V10.9375C43.2188 11.8281 43.2188 12.8535 42.9844 14.1953H44.4023V15.2617H34.7227V14.1953H41.6602C41.9004 12.918 41.918 11.9688 41.918 11.1133H35.918V10.0586H43.2188ZM43.5234 18.7656V19.8203H35.9766V16.2695H37.2656V18.7656H43.5234ZM57.6211 17.7344V18.8125H47.9414V17.7344H52.1133V16.0117H49.0898V12.543H55.1836V11.2305H49.0664V10.1758H56.4727V13.5742H50.3906V14.9453H56.7188V16.0117H53.4023V17.7344H57.6211ZM66.7383 10.4805V11.6758C66.7383 13.0938 66.7383 14.5586 66.3516 16.7852L65.0273 16.668C65.4375 14.582 65.4375 13.0469 65.4375 11.6758V11.5352H59.332V10.4805H66.7383ZM67.9688 17.5234V18.5898H58.3125V17.5234H67.9688ZM77.5078 9.46094V17.1133H76.1953V9.46094H77.5078ZM77.8008 18.7773V19.832H70.5V16.3398H71.8125V18.7773H77.8008ZM71.7305 10.1523C73.3359 10.1523 74.5781 11.2656 74.5781 12.8008C74.5781 14.3711 73.3359 15.4609 71.7305 15.4609C70.1133 15.4609 68.8711 14.3711 68.8711 12.8008C68.8711 11.2656 70.1133 10.1523 71.7305 10.1523ZM71.7305 11.2891C70.8281 11.2891 70.1367 11.8867 70.1484 12.8008C70.1367 13.7383 70.8281 14.3242 71.7305 14.3242C72.6094 14.3242 73.3008 13.7383 73.3008 12.8008C73.3008 11.8867 72.6094 11.2891 71.7305 11.2891Z" fill="#855348"/>
</svg>
