<svg width="20" height="20" viewBox="0 0 20 20" fill="white" xmlns="http://www.w3.org/2000/svg">
<path fill-rule="evenodd" clip-rule="evenodd" d="M11.5832 2.74314C11.1794 1.08562 8.82059 1.08562 8.41683 2.74314C8.35654 2.99221 8.23831 3.22353 8.07174 3.41828C7.90517 3.61302 7.69497 3.76569 7.45826 3.86386C7.22154 3.96202 6.96499 4.00291 6.70948 3.9832C6.45397 3.96348 6.20673 3.88372 5.98787 3.75041C4.53008 2.86215 2.8619 4.5303 3.75018 5.98807C4.32395 6.92946 3.81499 8.15773 2.74396 8.41804C1.08535 8.82074 1.08535 11.1806 2.74396 11.5822C2.9931 11.6426 3.22447 11.7609 3.41921 11.9276C3.61396 12.0943 3.76658 12.3046 3.86466 12.5415C3.96273 12.7783 4.00348 13.035 3.98359 13.2905C3.96369 13.5461 3.88372 13.7934 3.75018 14.0122C2.8619 15.47 4.53008 17.1381 5.98787 16.2499C6.20669 16.1163 6.45396 16.0363 6.70953 16.0165C6.96511 15.9966 7.22177 16.0373 7.45861 16.1354C7.69546 16.2335 7.90579 16.3861 8.07249 16.5808C8.23919 16.7756 8.35753 17.0069 8.41789 17.2561C8.82059 18.9146 11.1805 18.9146 11.5821 17.2561C11.6427 17.0071 11.7611 16.7758 11.9279 16.5812C12.0946 16.3866 12.3049 16.2341 12.5417 16.1361C12.7784 16.038 13.035 15.9972 13.2905 16.017C13.546 16.0368 13.7933 16.1166 14.0121 16.2499C15.4699 17.1381 17.1381 15.47 16.2498 14.0122C16.1165 13.7933 16.0367 13.5461 16.017 13.2906C15.9972 13.0351 16.038 12.7785 16.136 12.5418C16.2341 12.305 16.3866 12.0947 16.5812 11.928C16.7758 11.7612 17.007 11.6428 17.256 11.5822C18.9147 11.1795 18.9147 8.81968 17.256 8.41804C17.0069 8.35769 16.7755 8.23935 16.5808 8.07265C16.386 7.90596 16.2334 7.69563 16.1353 7.45878C16.0373 7.22194 15.9965 6.96529 16.0164 6.70971C16.0363 6.45414 16.1163 6.20688 16.2498 5.98807C17.1381 4.5303 15.4699 2.86215 14.0121 3.75041C13.7933 3.88395 13.546 3.96392 13.2905 3.98381C13.0349 4.00371 12.7782 3.96296 12.5414 3.86488C12.3045 3.76681 12.0942 3.61419 11.9275 3.41945C11.7608 3.2247 11.6425 2.99334 11.5821 2.74421L11.5832 2.74314Z" stroke="black" stroke-width="1.5"/>
<path d="M11.8889 10C11.8889 11.0432 11.0432 11.8889 10 11.8889C8.9568 11.8889 8.11111 11.0432 8.11111 10C8.11111 8.9568 8.9568 8.11111 10 8.11111C11.0432 8.11111 11.8889 8.9568 11.8889 10Z" stroke="black" stroke-width="1.5"/>
</svg>
