<svg width="21" height="20" viewBox="0 0 21 20" fill="none" xmlns="http://www.w3.org/2000/svg">
  <path
    d="M18 15.8333C18 16.7538 17.264 17.5 16.3562 17.5L4.64383 17.5C3.73597 17.5 3 16.7538 3 15.8333L3 13.3333C3 12.4129 3.73597 11.6667 4.64384 11.6667L16.3562 11.6667C17.264 11.6667 18 12.4129 18 13.3333V15.8333Z"
    stroke="black"
    stroke-width="1.5"
    stroke-linecap="round"
    stroke-linejoin="round"
  />
  <path
    d="M18 4.16667C18 3.24619 17.264 2.5 16.3562 2.5L4.64384 2.5C3.73597 2.5 3 3.24619 3 4.16667L3 6.66667C3 7.58714 3.73597 8.33333 4.64384 8.33333H16.3562C17.264 8.33333 18 7.58714 18 6.66667V4.16667Z"
    stroke="black"
    stroke-width="1.5"
    stroke-linecap="round"
    stroke-linejoin="round"
  />
</svg>